<?xml version="1.0" encoding="utf-8"?>
<!-- Generator: Adobe Illustrator 24.0.2, SVG Export Plug-In . SVG Version: 6.00 Build 0)  -->
<svg version="1.1" id="Layer_1" xmlns="http://www.w3.org/2000/svg" xmlns:xlink="http://www.w3.org/1999/xlink" x="0px" y="0px"
	 viewBox="0 0 700 700" style="enable-background:new 0 0 700 700;" xml:space="preserve">
<style type="text/css">
	.st0{fill:none;stroke:#FFFFFF;stroke-width:5.6693;stroke-linecap:round;stroke-linejoin:round;stroke-miterlimit:10;}
</style>
<path d="M546.5,151.9l-9.5,9.5c-9.1-3-18.8-3.4-28.1-1.2c-9.3,2.2-17.8,7-24.5,13.8L368.7,289.1l-3.2,3.2
	c-26.6,26.6-45.7,59.8-55.5,96.1l-18.8,18.8c-1.2,1-1.9,2.5-2,4c-0.1,1.6,0.5,3.1,1.6,4.2c1.1,1.1,2.6,1.7,4.2,1.6
	c1.6-0.1,3-0.8,4-2l18.8-18.8c36.3-9.8,69.5-28.9,96.1-55.5l3.2-3.2l106.9-107.2l4.3-4.3l3.1,3.1l0,0c2.1,2.1,3.3,4.9,3.3,7.9
	s-1.2,5.8-3.3,7.9l-56,56c-1.2,1-1.9,2.5-2,4c-0.1,1.6,0.5,3.1,1.6,4.2c1.1,1.1,2.6,1.7,4.2,1.6c1.6-0.1,3-0.8,4-2l56-56
	c4.2-4.2,6.6-9.9,6.6-15.8c0-5.9-2.4-11.6-6.6-15.8l-3.4-3.4c11.1-13.6,14.4-32,8.8-48.6l9.5-9.5c1.9-2.2,1.8-5.5-0.3-7.6
	C552.1,150.2,548.8,150,546.5,151.9L546.5,151.9z M372.4,301l32.6,32.6c-23.1,22.9-51.3,39.9-82.3,49.6
	C332.5,352.2,349.5,324.1,372.4,301z M412.9,325.7L380.3,293l103.6-103l4.2-4.3l32.4,32.6L412.9,325.7z M528.1,210.1l-31.9-31.9
	c10.8-8.3,25.1-10.6,37.9-6C538.7,185,536.4,199.3,528.1,210.1L528.1,210.1z M439.6,464.8H176.4c-3.1,0-5.6-2.5-5.6-5.6V106.4
	c0-3.1,2.5-5.6,5.6-5.6h263.2c1.5,0,2.9,0.6,4,1.6c1.1,1.1,1.6,2.5,1.6,4v67.2c0,3.1-2.5,5.6-5.6,5.6c-3.1,0-5.6-2.5-5.6-5.6V112
	H182v341.6h252V347.2c0-3.1,2.5-5.6,5.6-5.6c3.1,0,5.6,2.5,5.6,5.6v112c0,1.5-0.6,2.9-1.6,4C442.5,464.2,441.1,464.8,439.6,464.8
	L439.6,464.8z M389.2,162.4c0,1.5-0.6,2.9-1.6,4c-1.1,1.1-2.5,1.6-4,1.6H232.4c-3.1,0-5.6-2.5-5.6-5.6c0-3.1,2.5-5.6,5.6-5.6h151.2
	c1.5,0,2.9,0.6,4,1.6C388.6,159.5,389.2,160.9,389.2,162.4L389.2,162.4z M389.2,190.4c0,1.5-0.6,2.9-1.6,4c-1.1,1.1-2.5,1.6-4,1.6
	H232.4c-3.1,0-5.6-2.5-5.6-5.6c0-3.1,2.5-5.6,5.6-5.6h151.2c1.5,0,2.9,0.6,4,1.6C388.6,187.5,389.2,188.9,389.2,190.4L389.2,190.4z
	 M378,252H232.4c-3.1,0-5.6-2.5-5.6-5.6c0-3.1,2.5-5.6,5.6-5.6H378c3.1,0,5.6,2.5,5.6,5.6C383.6,249.5,381.1,252,378,252z
	 M327.6,308h-95.2c-3.1,0-5.6-2.5-5.6-5.6c0-3.1,2.5-5.6,5.6-5.6h95.2c3.1,0,5.6,2.5,5.6,5.6C333.2,305.5,330.7,308,327.6,308z
	 M288.4,364h-56c-3.1,0-5.6-2.5-5.6-5.6c0-3.1,2.5-5.6,5.6-5.6h56c3.1,0,5.6,2.5,5.6,5.6C294,361.5,291.5,364,288.4,364z M383.6,224
	H232.4c-3.1,0-5.6-2.5-5.6-5.6c0-3.1,2.5-5.6,5.6-5.6h151.2c3.1,0,5.6,2.5,5.6,5.6C389.2,221.5,386.7,224,383.6,224z M355.6,280
	H232.4c-3.1,0-5.6-2.5-5.6-5.6c0-3.1,2.5-5.6,5.6-5.6h123.2c3.1,0,5.6,2.5,5.6,5.6C361.2,277.5,358.7,280,355.6,280z M305.2,336
	h-72.8c-3.1,0-5.6-2.5-5.6-5.6c0-3.1,2.5-5.6,5.6-5.6h72.8c3.1,0,5.6,2.5,5.6,5.6C310.8,333.5,308.3,336,305.2,336z M277.2,380.8
	c3.1,0,5.6,2.5,5.6,5.6c0,3.1-2.5,5.6-5.6,5.6h-44.8c-3.1,0-5.6-2.5-5.6-5.6c0-3.1,2.5-5.6,5.6-5.6H277.2z"/>
<circle cx="419.4" cy="433.3" r="45"/>
<polyline class="st0" points="441.1,418.4 412.7,445.2 399.7,428.3 "/>
</svg>
