<?xml version="1.0" encoding="UTF-8"?>
<svg width="700pt" height="700pt" version="1.1" viewBox="0 0 700 700" xmlns="http://www.w3.org/2000/svg">
 <g>
  <path d="m303.33 102.67c0 25.773-20.891 46.664-46.664 46.664-25.773 0-46.668-20.891-46.668-46.664 0-25.773 20.895-46.668 46.668-46.668 25.773 0 46.664 20.895 46.664 46.668"/>
  <path d="m266 317.33v-56h93.332v-37.332h-93.332v-56h-74.668l-37.332 205.33h168v168h37.332l37.336-224z"/>
  <path d="m116.67 392h186.67v37.332h-186.67z"/>
  <path d="m303.33 280h280v18.668h-280z"/>
  <path d="m505.75 261.33h-127.75v-18.664h114.91l44.371-115.36 17.438 6.7188z"/>
 </g>
</svg>
