<svg width="19" height="18" viewBox="0 0 19 18" fill="none" xmlns="http://www.w3.org/2000/svg">
<path d="M4.59375 7.78125C6.09375 10.6875 8.29688 12.8906 11.2031 14.3906L13.4062 12.1875C13.7188 11.875 14.0625 11.7969 14.4375 11.9531C15.5625 12.3281 16.75 12.5156 18 12.5156C18.2812 12.5156 18.5156 12.6094 18.7031 12.7969C18.8906 12.9844 18.9844 13.2188 18.9844 13.5V17.0156C18.9844 17.2969 18.8906 17.5312 18.7031 17.7188C18.5156 17.9062 18.2812 18 18 18C13.3125 18 9.29688 16.3438 5.95312 13.0312C2.64062 9.6875 0.984375 5.67188 0.984375 0.984375C0.984375 0.703125 1.07812 0.46875 1.26562 0.28125C1.45312 0.09375 1.6875 0 1.96875 0H5.48438C5.76562 0 6 0.09375 6.1875 0.28125C6.375 0.46875 6.46875 0.703125 6.46875 0.984375C6.46875 2.23438 6.65625 3.42188 7.03125 4.54688C7.15625 4.95312 7.07812 5.29688 6.79688 5.57812L4.59375 7.78125Z" fill="white"/>
</svg>
