<svg id="Layer_1" data-name="Layer 1" xmlns="http://www.w3.org/2000/svg" viewBox="0 0 394 391"><defs><style>.cls-1{fill:none;stroke:#fff;stroke-linecap:round;stroke-linejoin:round;stroke-width:5.67px;}</style></defs><title>Confidencial</title><path d="M380.5,57.9,371,67.4a51.65,51.65,0,0,0-28.1-1.2A50.87,50.87,0,0,0,318.4,80L202.7,195.1l-3.2,3.2A215.25,215.25,0,0,0,144,294.4l-18.8,18.8a5.75,5.75,0,0,0-2,4A5.49,5.49,0,0,0,129,323a5.56,5.56,0,0,0,4-2l18.8-18.8a215.25,215.25,0,0,0,96.1-55.5l3.2-3.2L358,136.3l4.3-4.3,3.1,3.1h0a11.11,11.11,0,0,1,0,15.8l-56,56a5.75,5.75,0,0,0-2,4,5.49,5.49,0,0,0,5.8,5.8,5.56,5.56,0,0,0,4-2l56-56a22.21,22.21,0,0,0,0-31.6l-3.4-3.4a51.1,51.1,0,0,0,8.8-48.6l9.5-9.5a5.57,5.57,0,0,0-.3-7.6,5.48,5.48,0,0,0-7.3-.1ZM206.4,207,239,239.6a203,203,0,0,1-82.3,49.6A203.92,203.92,0,0,1,206.4,207Zm40.5,24.7L214.3,199,317.9,96l4.2-4.3,32.4,32.6ZM362.1,116.1,330.2,84.2a40,40,0,0,1,37.9-6,40,40,0,0,1-6,37.9ZM273.6,370.8H10.4a5.59,5.59,0,0,1-5.6-5.6V12.4a5.59,5.59,0,0,1,5.6-5.6H273.6a6,6,0,0,1,4,1.6,5.51,5.51,0,0,1,1.6,4V79.6a5.6,5.6,0,1,1-11.2,0V18H16V359.6H268V253.2a5.6,5.6,0,1,1,11.2,0v112a5.47,5.47,0,0,1-5.6,5.6ZM223.2,68.4a6,6,0,0,1-1.6,4,5.51,5.51,0,0,1-4,1.6H66.4a5.6,5.6,0,0,1,0-11.2H217.6a5.47,5.47,0,0,1,5.6,5.6Zm0,28a6,6,0,0,1-1.6,4,5.51,5.51,0,0,1-4,1.6H66.4a5.6,5.6,0,0,1,0-11.2H217.6a5.47,5.47,0,0,1,5.6,5.6ZM212,158H66.4a5.6,5.6,0,0,1,0-11.2H212a5.6,5.6,0,1,1,0,11.2Zm-50.4,56H66.4a5.6,5.6,0,0,1,0-11.2h95.2a5.6,5.6,0,0,1,0,11.2Zm-39.2,56h-56a5.6,5.6,0,0,1,0-11.2h56a5.6,5.6,0,0,1,0,11.2Zm95.2-140H66.4a5.6,5.6,0,0,1,0-11.2H217.6a5.6,5.6,0,0,1,0,11.2Zm-28,56H66.4a5.6,5.6,0,0,1,0-11.2H189.6a5.6,5.6,0,0,1,0,11.2Zm-50.4,56H66.4a5.6,5.6,0,0,1,0-11.2h72.8a5.6,5.6,0,1,1,0,11.2Zm-28,44.8a5.6,5.6,0,1,1,0,11.2H66.4a5.6,5.6,0,0,1,0-11.2Z"/><circle cx="253.4" cy="339.3" r="45"/><polyline class="cls-1" points="275.1 324.4 246.7 351.2 233.7 334.3"/></svg>