<?xml version="1.0" encoding="utf-8"?>
<!-- Generator: Adobe Illustrator 24.0.2, SVG Export Plug-In . SVG Version: 6.00 Build 0)  -->
<svg version="1.1" id="Layer_1" xmlns="http://www.w3.org/2000/svg" xmlns:xlink="http://www.w3.org/1999/xlink" x="0px" y="0px"
	 viewBox="0 0 394 391" style="enable-background:new 0 0 394 391;" xml:space="preserve">
<style type="text/css">
	.st0{fill:#0066FF;}
	.st1{fill:none;stroke:#FFFFFF;stroke-width:5.67;stroke-linecap:round;stroke-linejoin:round;}
</style>
<title>Confidencial</title>
<path d="M380.5,57.9l-9.5,9.5c-9.1-3-18.8-3.4-28.1-1.2c-9.3,2.2-17.8,7-24.5,13.8L202.7,195.1l-3.2,3.2
	c-26.6,26.6-45.7,59.8-55.5,96.1l-18.8,18.8c-1.2,1-1.9,2.5-2,4c-0.2,3,2.1,5.6,5.2,5.8c0.2,0,0.4,0,0.6,0c1.6-0.1,3-0.8,4-2
	l18.8-18.8c36.3-9.8,69.5-28.9,96.1-55.5l3.2-3.2L358,136.3l4.3-4.3l3.1,3.1l0,0c4.4,4.3,4.4,11.3,0.1,15.7c0,0-0.1,0.1-0.1,0.1
	l-56,56c-1.2,1-1.9,2.5-2,4c-0.2,3,2.1,5.6,5.2,5.8c0.2,0,0.4,0,0.6,0c1.6-0.1,3-0.8,4-2l56-56c8.7-8.6,8.8-22.7,0.2-31.4
	c-0.1-0.1-0.1-0.1-0.2-0.2l-3.4-3.4c11.1-13.6,14.4-32,8.8-48.6l9.5-9.5c1.9-2.2,1.8-5.5-0.3-7.6C385.7,56.1,382.6,56.1,380.5,57.9
	L380.5,57.9z M206.4,207l32.6,32.6c-23.1,22.9-51.3,39.9-82.3,49.6C166.5,258.2,183.5,230.1,206.4,207z M246.9,231.7L214.3,199
	L317.9,96l4.2-4.3l32.4,32.6L246.9,231.7z M362.1,116.1l-31.9-31.9c10.8-8.3,25.1-10.6,37.9-6C372.7,91,370.4,105.3,362.1,116.1z
	 M273.6,370.8H10.4c-3.1,0-5.6-2.5-5.6-5.6c0,0,0,0,0,0V12.4c0-3.1,2.5-5.6,5.6-5.6c0,0,0,0,0,0h263.2c1.5,0,2.9,0.6,4,1.6
	c1.1,1.1,1.6,2.5,1.6,4v67.2c0,3.1-2.5,5.6-5.6,5.6s-5.6-2.5-5.6-5.6V18H16v341.6h252V253.2c0-3.1,2.5-5.6,5.6-5.6s5.6,2.5,5.6,5.6
	v112c0.1,3-2.3,5.5-5.3,5.6C273.8,370.8,273.7,370.8,273.6,370.8L273.6,370.8z M223.2,68.4c0,1.5-0.6,2.9-1.6,4
	c-1.1,1.1-2.5,1.6-4,1.6H66.4c-3.1,0-5.6-2.5-5.6-5.6s2.5-5.6,5.6-5.6h151.2c3-0.1,5.5,2.3,5.6,5.3
	C223.2,68.2,223.2,68.3,223.2,68.4L223.2,68.4z M223.2,96.4c0,1.5-0.6,2.9-1.6,4c-1.1,1.1-2.5,1.6-4,1.6H66.4
	c-3.1,0-5.6-2.5-5.6-5.6c0-3.1,2.5-5.6,5.6-5.6h151.2c3-0.1,5.5,2.3,5.6,5.3C223.2,96.2,223.2,96.3,223.2,96.4L223.2,96.4z M212,158
	H66.4c-3.1,0-5.6-2.5-5.6-5.6c0-3.1,2.5-5.6,5.6-5.6H212c3.1,0,5.6,2.5,5.6,5.6S215.1,158,212,158C212,158,212,158,212,158z
	 M161.6,214H66.4c-3.1,0-5.6-2.5-5.6-5.6c0-3.1,2.5-5.6,5.6-5.6h95.2c3.1,0,5.6,2.5,5.6,5.6C167.2,211.5,164.7,214,161.6,214z
	 M122.4,270h-56c-3.1,0-5.6-2.5-5.6-5.6s2.5-5.6,5.6-5.6h56c3.1,0,5.6,2.5,5.6,5.6S125.5,270,122.4,270z M217.6,130H66.4
	c-3.1,0-5.6-2.5-5.6-5.6c0-3.1,2.5-5.6,5.6-5.6h151.2c3.1,0,5.6,2.5,5.6,5.6C223.2,127.5,220.7,130,217.6,130z M189.6,186H66.4
	c-3.1,0-5.6-2.5-5.6-5.6c0-3.1,2.5-5.6,5.6-5.6h123.2c3.1,0,5.6,2.5,5.6,5.6C195.2,183.5,192.7,186,189.6,186z M139.2,242H66.4
	c-3.1,0-5.6-2.5-5.6-5.6c0-3.1,2.5-5.6,5.6-5.6h72.8c3.1,0,5.6,2.5,5.6,5.6S142.3,242,139.2,242C139.2,242,139.2,242,139.2,242z
	 M111.2,286.8c3.1,0,5.6,2.5,5.6,5.6s-2.5,5.6-5.6,5.6H66.4c-3.1,0-5.6-2.5-5.6-5.6s2.5-5.6,5.6-5.6H111.2z"/>
<circle class="st0" cx="253.4" cy="339.3" r="45"/>
<polyline class="st1" points="275.1,324.4 246.7,351.2 233.7,334.3 "/>
<path class="st0" d="M354.2,299.3c-17.2-1-28.6,5.8-34.6,22.8c1.6-18.7-6.7-29.7-24.5-35.2c19.6,2.2,31.3-6.3,37.1-24.5
	C329.9,280.7,337.5,292.4,354.2,299.3z"/>
<path class="st0" d="M373.7,250.5c-12.2-0.7-20.3,4.1-24.5,16.2c1.1-13.3-4.7-21.1-17.3-25c13.9,1.5,22.2-4.4,26.3-17.3
	C356.5,237.4,361.9,245.7,373.7,250.5z"/>
</svg>
