<svg xmlns="http://www.w3.org/2000/svg" viewBox="0 0 131.03 131.03"><defs><style>.cls-1{isolation:isolate;}.cls-2{fill:#06c;mix-blend-mode:multiply;}.cls-3,.cls-5{fill:none;stroke:#fff;stroke-linecap:round;stroke-linejoin:round;}.cls-3{stroke-width:3px;}.cls-4{fill:#fff;}.cls-5{stroke-width:2.2px;}</style></defs><title>Asset 3define</title><g class="cls-1"><g id="Layer_2" data-name="Layer 2"><g id="OBJECTS"><circle class="cls-2" cx="65.52" cy="65.52" r="65.52"/><path class="cls-3" d="M87.2,53.35a24.81,24.81,0,1,1-10.3-10"/><circle class="cls-3" cx="65.52" cy="65.52" r="17.17"/><circle class="cls-3" cx="65.52" cy="65.52" r="9.65" transform="translate(-9.52 119.86) rotate(-80.91)"/><path class="cls-4" d="M69.37,65.52a3.86,3.86,0,1,1-3.85-3.86A3.86,3.86,0,0,1,69.37,65.52Z"/><line class="cls-3" x1="88.27" y1="40.58" x2="65.52" y2="65.52"/><path class="cls-5" d="M78.72,51s-2-8.93-1.11-10.79,7.77-7.89,7.77-7.89v11"/><path class="cls-5" d="M78.88,51s8.89,2.18,10.76,1.31,8-7.64,8-7.64l-11-.19"/></g></g></g></svg>