<svg width="20" height="18" viewBox="0 0 20 18" fill="none" xmlns="http://www.w3.org/2000/svg">
<path d="M18 5.01562V3L9.98438 8.01562L1.96875 3V5.01562L9.98438 9.98438L18 5.01562ZM18 0.984375C18.5312 0.984375 18.9844 1.1875 19.3594 1.59375C19.7656 2 19.9688 2.46875 19.9688 3V15C19.9688 15.5312 19.7656 16 19.3594 16.4062C18.9844 16.8125 18.5312 17.0156 18 17.0156H1.96875C1.4375 17.0156 0.96875 16.8125 0.5625 16.4062C0.1875 16 0 15.5312 0 15V3C0 2.46875 0.1875 2 0.5625 1.59375C0.96875 1.1875 1.4375 0.984375 1.96875 0.984375H18Z" fill="white"/>
</svg>
