<svg xmlns="http://www.w3.org/2000/svg" viewBox="0 0 131.03 131.03"><defs><style>.cls-1{isolation:isolate;}.cls-2{fill:#06c;mix-blend-mode:multiply;}.cls-3,.cls-4{fill:none;stroke:#fff;stroke-linecap:round;stroke-linejoin:round;}.cls-3{stroke-width:3px;}.cls-4{stroke-width:2.34px;}.cls-5{fill:#fff;}</style></defs><title>Asset 2emphaty</title><g class="cls-1"><g id="Layer_2" data-name="Layer 2"><g id="OBJECTS"><circle class="cls-2" cx="65.52" cy="65.52" r="65.52"/><g id="F8GCQR"><path class="cls-3" d="M65.58,54.48a15,15,0,0,1,5-7.73c4.59-3.55,9.64-4.44,15-2s8.13,6.83,8.64,12.6c.46,5-1.4,9.49-4.13,13.59A59.78,59.78,0,0,1,75.62,85.46c-2.88,2.16-5.93,4.06-8.9,6.09a1.82,1.82,0,0,1-2.19.14c-8-5-15.51-10.61-21.49-18-3.33-4.13-5.72-8.71-6.17-14.13a15.23,15.23,0,0,1,8-14.51,14.45,14.45,0,0,1,15.6,1.55,16.07,16.07,0,0,1,4.46,6.27C65.09,53.3,65.27,53.74,65.58,54.48Z"/></g><g id="F8GCQR-2" data-name="F8GCQR"><path class="cls-4" d="M82.29,48.34A11.28,11.28,0,0,1,89,58.16"/></g><circle class="cls-5" cx="65.52" cy="65.27" r="5"/><path class="cls-5" d="M75.15,79.21a9.64,9.64,0,1,0-19.27,0H75.15"/></g></g></g></svg>