<svg xmlns="http://www.w3.org/2000/svg" viewBox="0 0 131.03 131.03"><defs><style>.cls-1{isolation:isolate;}.cls-2{fill:#06c;mix-blend-mode:multiply;}.cls-3,.cls-4,.cls-5,.cls-6{fill:none;stroke:#fff;stroke-linecap:round;stroke-linejoin:round;}.cls-3{stroke-width:3px;}.cls-4{stroke-width:3.05px;}.cls-5{stroke-width:2.34px;}.cls-6{stroke-width:2.11px;}</style></defs><title>Asset 4ideate</title><g class="cls-1"><g id="Layer_2" data-name="Layer 2"><g id="OBJECTS"><circle class="cls-2" cx="65.52" cy="65.52" r="65.52"/><path class="cls-3" d="M85.33,52A19.82,19.82,0,1,0,48.72,62.47c2.66,4.23,4.25,6,4.25,11v6.35H78.06V73.5c0-5,1.59-6.8,4.25-11A19.74,19.74,0,0,0,85.33,52Z"/><path class="cls-4" d="M65.3,92.56h0A12.33,12.33,0,0,1,53,80.23v-.38H78A12.71,12.71,0,0,1,65.3,92.56Z"/><line class="cls-5" x1="68.84" y1="79.85" x2="72.84" y2="59.49"/><line class="cls-5" x1="62.15" y1="79.85" x2="58.15" y2="59.49"/><path class="cls-6" d="M59.85,58.3a5.09,5.09,0,0,0,2.25-2.37c2.11-4.12-6.26-3.62-.79,2.47"/><path class="cls-6" d="M56.1,58.4a4.89,4.89,0,0,0,3.75-.1"/><path class="cls-6" d="M74.89,58.4a4.89,4.89,0,0,1-3.75-.1"/><path class="cls-6" d="M61.2,58.4a4.65,4.65,0,0,0,6-2.47c2.11-4.12-6.27-3.62-.8,2.47"/><path class="cls-6" d="M66.21,58.4a4.65,4.65,0,0,0,6-2.47c2.11-4.12-6.26-3.62-.8,2.47"/><path class="cls-5" d="M80.06,51.39a14.13,14.13,0,0,0-14.9-14.11"/></g></g></g></svg>