<svg xmlns="http://www.w3.org/2000/svg" viewBox="0 0 131.03 131.03"><defs><style>.cls-1{isolation:isolate;}.cls-2{fill:#06c;mix-blend-mode:multiply;}.cls-3,.cls-5{fill:none;stroke:#fff;stroke-linecap:round;stroke-linejoin:round;}.cls-3{stroke-width:2.69px;}.cls-4{fill:#fff;}.cls-5{stroke-width:2.09px;}</style></defs><title>Asset 7implement</title><g class="cls-1"><g id="Layer_2" data-name="Layer 2"><g id="OBJECTS"><circle class="cls-2" cx="65.52" cy="65.52" r="65.52"/><path class="cls-3" d="M72.11,85.6l-.34,1A4.06,4.06,0,0,1,66.59,89l-13-4.57a4.06,4.06,0,0,1-2.49-5.18l.34-1"/><path class="cls-3" d="M70,85.27,53.27,79.39A5.77,5.77,0,0,1,49.73,72L56.1,53.88A31.64,31.64,0,0,1,78.77,33.55h0a31.61,31.61,0,0,1,5,30L77.38,81.74A5.76,5.76,0,0,1,70,85.27Z"/><path class="cls-3" d="M49.41,74.22l-8-2.8a2.77,2.77,0,0,1-1.7-3.54l2.17-6.19a14.5,14.5,0,0,1,14.9-9.64"/><path class="cls-3" d="M76.66,83.79l8,2.8a2.78,2.78,0,0,0,3.54-1.7l2.17-6.19a14.49,14.49,0,0,0-5.6-16.84"/><path class="cls-3" d="M77.59,66.85a9.92,9.92,0,1,1-6.07-12.64A9.92,9.92,0,0,1,77.59,66.85Z"/><path class="cls-4" d="M74.14,65.64a6.26,6.26,0,1,1-3.83-8A6.25,6.25,0,0,1,74.14,65.64Z"/><path class="cls-5" d="M78.3,38.06s4.86,6.86,3.63,18.79"/><path class="cls-4" d="M51.58,84.74l-6.26,8.59a1,1,0,0,0,1.16,1.42l4.26-1.94a.94.94,0,0,1,1.32,1l-1.88,10.25a1,1,0,0,0,1.65.8l6.7-7.75a1,1,0,0,1,1.65.45l1.13,6.14a1,1,0,0,0,1.86,0l.76-3.37a1,1,0,0,1,1.79-.19h0a1,1,0,0,0,1.81-.42l-.26-9.68"/></g></g></g></svg>