<svg xmlns="http://www.w3.org/2000/svg" viewBox="0 0 131.03 131.03"><defs><style>.cls-1{isolation:isolate;}.cls-2{fill:#06c;mix-blend-mode:multiply;}.cls-3,.cls-4{fill:none;}.cls-3,.cls-4,.cls-5{stroke:#fff;stroke-linecap:round;stroke-linejoin:round;}.cls-3{stroke-width:2.34px;}.cls-4,.cls-5{stroke-width:3px;}.cls-5{fill:#fff;}</style></defs><title>Asset 5prototype</title><g class="cls-1"><g id="Layer_2" data-name="Layer 2"><g id="OBJECTS"><circle class="cls-2" cx="65.52" cy="65.52" r="65.52"/><polyline class="cls-3" points="47.74 51.22 54.97 52.68 57.8 47.47 63.74 49.4 67.24 44.56"/><path class="cls-4" d="M67.24,44.56l.62-.85L81.34,79.83a9.76,9.76,0,0,1-5.72,12.56l-1.84.68a9.75,9.75,0,0,1-12.55-5.73L47.74,51.22"/><line class="cls-3" x1="80.16" y1="76.65" x2="60.04" y2="84.16"/><line class="cls-3" x1="81.41" y1="80" x2="61.29" y2="87.51"/><line class="cls-3" x1="78.8" y1="73.03" x2="58.69" y2="80.54"/><line class="cls-3" x1="54.97" y1="52.68" x2="64.56" y2="78.35"/><line class="cls-3" x1="63.75" y1="49.4" x2="73.33" y2="75.07"/><path class="cls-5" d="M55,34.53a2.27,2.27,0,0,0-3.53,1.32L49.73,43l11.2-4.18Z"/><path class="cls-4" d="M67.86,43.71,61,38.79,49.72,43l-2,8.22"/></g></g></g></svg>